<svg viewBox="52.999 26.119 400 400" xmlns="http://www.w3.org/2000/svg">
  <defs>
    <view id="view-1" viewBox="942.709 343.545 148.405 72.646">
      <title>View 1</title>
    </view>
    <mask id="mask-0">
      <polygon id="polygon-1" points="250 94 336.603 181.5 250 269 163.397 181.5" style="fill: rgb(238, 238, 238);"></polygon>
    </mask>
  </defs>
  <g transform="matrix(1.8, 0, 0, 1.8, -197.186493, -108.244987)">
    <svg width="175" height="175" viewBox="0 0 175 175" version="1.1" id="svg_frame.secondary" x="163" y="94" fill="#00adb5" transform="matrix(1, 0, 0, 1, 153.46957551345116, 97.97583877205592)">
      <g id="Page-1" stroke-width="1" fill="none" fill-rule="evenodd">
        <polygon id="frame.secondary" points="87 0 173.603 87.5 87 175 .397 87.5" fill="#00adb5"></polygon>
      </g>
    </svg>
    <path d="M 178.443 329.438 L 312.986 82.388 L 313.561 81.332 L 311.475 80.168 L 310.901 81.224 L 176.357 328.274 L 175.782 329.33 L 177.868 330.494 L 178.443 329.438 Z M 249.882 329.438 L 384.425 82.388 L 385 81.332 L 382.915 80.168 L 382.34 81.224 L 247.796 328.274 L 247.221 329.33 L 249.307 330.494 L 249.882 329.438 Z M 134.422 361.911 L 265.393 82.321 L 265.903 81.233 L 263.752 80.2 L 263.242 81.289 L 132.27 360.879 L 131.76 361.967 L 133.911 363 L 134.421 361.911 Z M 327.147 331.701 L 117.593 76.215 L 116.833 75.288 L 115 76.828 L 115.76 77.755 L 325.315 333.242 L 326.075 334.169 L 327.908 332.629 L 327.148 331.702 Z M 370.073 295.631 L 170.043 3.99 L 169.364 3 L 167.408 4.374 L 168.088 5.364 L 368.117 297.005 L 368.796 297.995 L 370.752 296.621 L 370.072 295.631 Z" id="shape.primary" fill="#eeeeee" style="mask: url(#mask-0);"></path>
  </g>
</svg>